<svg width="524.0499877929688px" height="121.40498046875px" xmlns="http://www.w3.org/2000/svg" viewBox="-12.024993896484375 14.297509765625001 524.0499877929688 121.40498046875" style="background:#596886" preserveAspectRatio="xMidYMid"><defs><filter id="editing-hover" x="-100%" y="-100%" width="300%" height="300%"><feFlood flood-color="#052b4a" result="flood"></feFlood><feComposite operator="in" in2="SourceAlpha" in="flood" result="shadow"></feComposite><feOffset dx="-4" dy="-4" in="SourceGraphic" result="offset-1"></feOffset><feOffset dx="4" dy="4" in="shadow" result="offset-2"></feOffset><feMerge><feMergeNode in="offset-2"></feMergeNode><feMergeNode in="offset-1"></feMergeNode></feMerge></filter></defs><g filter="url(#editing-hover)"><g transform="translate(66.51500424742699, 97.39999961853027)"><path d="M14.34 0L0.38 0L8.51-42.24L22.59-42.24L14.34 0ZM25.02-6.40L25.02-6.40L25.02-6.40Q25.02-8.13 25.92-12.48L25.92-12.48L29.31-29.76L25.54-29.76L25.79-31.68L25.79-31.68Q33.47-33.98 40.90-39.62L40.90-39.62L43.97-39.62L42.43-32.64L47.42-32.64L46.85-29.76L41.92-29.76L38.66-12.48L38.66-12.48Q37.82-8.51 37.82-7.17L37.82-7.17L37.82-7.17Q37.82-4.10 40.51-3.46L40.51-3.46L40.51-3.46Q39.87-1.28 37.57 0L37.57 0L37.57 0Q35.26 1.28 32 1.28L32 1.28L32 1.28Q28.74 1.28 26.88-0.77L26.88-0.77L26.88-0.77Q25.02-2.82 25.02-6.40ZM106.37 1.28L106.37 1.28L106.37 1.28Q98.62 1.28 98.62-4.74L98.62-4.74L98.62-4.74Q98.62-7.36 99.74-12.45L99.74-12.45L99.74-12.45Q100.86-17.54 101.25-19.58L101.25-19.58L101.25-19.58Q102.14-24.26 102.14-25.73L102.14-25.73L102.14-25.73Q102.14-28.99 99.71-28.99L99.71-28.99L99.71-28.99Q98.11-28.99 96.58-26.78L96.58-26.78L96.58-26.78Q95.04-24.58 94.34-20.16L94.34-20.16L90.37 0L77.89 1.28L81.34-16.13L81.34-16.13Q81.92-19.01 82.43-22.27L82.43-22.27L82.43-22.27Q82.94-25.54 82.94-26.05L82.94-26.05L82.94-26.05Q82.94-28.99 80.77-28.99L80.77-28.99L80.77-28.99Q79.30-28.99 77.70-26.82L77.70-26.82L77.70-26.82Q76.10-24.64 75.20-20.16L75.20-20.16L71.30 0L58.69 1.28L65.41-32.64L75.84-33.92L74.75-27.46L74.75-27.46Q76.42-30.91 79.49-32.42L79.49-32.42L79.49-32.42Q82.56-33.92 87.36-33.92L87.36-33.92L87.36-33.92Q90.11-33.92 91.90-32.58L91.90-32.58L91.90-32.58Q93.70-31.23 94.27-29.06L94.27-29.06L94.27-29.06Q95.36-31.30 98.14-32.61L98.14-32.61L98.14-32.61Q100.93-33.92 104.35-33.92L104.35-33.92L104.35-33.92Q107.78-33.92 109.47-33.18L109.47-33.18L109.47-33.18Q111.17-32.45 112.19-31.23L112.19-31.23L112.19-31.23Q113.92-28.99 113.92-24.90L113.92-24.90L113.92-24.90Q113.92-20.86 112.19-12.48L112.19-12.48L112.19-12.48Q111.30-8.38 111.30-6.88L111.30-6.88L111.30-6.88Q111.30-5.38 112.16-4.48L112.16-4.48L112.16-4.48Q113.02-3.58 114.30-3.46L114.30-3.46L114.30-3.46Q113.66-1.28 111.46 0L111.46 0L111.46 0Q109.25 1.28 106.37 1.28ZM145.15-10.82L145.15-10.82L145.15-10.82Q146.75-9.73 146.75-7.33L146.75-7.33L146.75-7.33Q146.75-4.93 145.54-3.39L145.54-3.39L145.54-3.39Q144.32-1.86 142.34-0.83L142.34-0.83L142.34-0.83Q138.24 1.28 133.82 1.28L133.82 1.28L133.82 1.28Q129.41 1.28 126.82 0.32L126.82 0.32L126.82 0.32Q124.22-0.64 122.50-2.43L122.50-2.43L122.50-2.43Q119.10-5.82 119.10-12.03L119.10-12.03L119.10-12.03Q119.10-21.70 124.35-27.58L124.35-27.58L124.35-27.58Q129.98-33.92 139.78-33.92L139.78-33.92L139.78-33.92Q145.86-33.92 148.86-31.36L148.86-31.36L148.86-31.36Q151.10-29.44 151.10-26.30L151.10-26.30L151.10-26.30Q151.10-15.04 131.65-15.04L131.65-15.04L131.65-15.04Q131.39-13.38 131.39-11.97L131.39-11.97L131.39-11.97Q131.39-9.02 132.70-7.90L132.70-7.90L132.70-7.90Q134.02-6.78 136.45-6.78L136.45-6.78L136.45-6.78Q138.88-6.78 141.47-7.90L141.47-7.90L141.47-7.90Q144.06-9.02 145.15-10.82ZM132.10-17.79L132.10-17.79L132.10-17.79Q136.64-17.79 139.26-20.61L139.26-20.61L139.26-20.61Q141.89-23.30 141.89-27.58L141.89-27.58L141.89-27.58Q141.89-29.06 141.34-29.86L141.34-29.86L141.34-29.86Q140.80-30.66 139.71-30.66L139.71-30.66L139.71-30.66Q138.62-30.66 137.70-30.24L137.70-30.24L137.70-30.24Q136.77-29.82 135.81-28.42L135.81-28.42L135.81-28.42Q133.44-25.22 132.10-17.79ZM191.42-29.57L191.42-29.57L191.42-29.57Q192.38-31.49 192.38-33.28L192.38-33.28L192.38-33.28Q192.38-35.07 192.19-36.06L192.19-36.06L192.19-36.06Q192-37.06 191.55-37.82L191.55-37.82L191.55-37.82Q190.59-39.49 188.67-39.49L188.67-39.49L188.67-39.49Q186.30-39.49 184.38-37.76L184.38-37.76L184.38-37.76Q182.34-35.97 182.34-33.15L182.34-33.15L182.34-33.15Q182.34-31.36 183.58-29.98L183.58-29.98L183.58-29.98Q184.83-28.61 186.75-27.33L186.75-27.33L186.75-27.33Q188.67-26.05 190.85-24.77L190.85-24.77L190.85-24.77Q193.02-23.49 194.94-21.95L194.94-21.95L194.94-21.95Q199.36-18.43 199.36-13.70L199.36-13.70L199.36-13.70Q199.36-10.50 197.66-7.78L197.66-7.78L197.66-7.78Q195.97-5.06 193.15-3.07L193.15-3.07L193.15-3.07Q187.01 1.28 178.88 1.28L178.88 1.28L178.88 1.28Q172.29 1.28 168.90-0.86L168.90-0.86L168.90-0.86Q165.50-3.01 165.50-6.27L165.50-6.27L165.50-6.27Q165.50-12.10 170.05-13.57L170.05-13.57L170.05-13.57Q171.33-14.02 173.28-14.02L173.28-14.02L173.28-14.02Q175.23-14.02 177.47-13.18L177.47-13.18L177.47-13.18Q176.45-10.56 176.45-8.19L176.45-8.19L176.45-8.19Q176.45-3.07 180.10-3.07L180.10-3.07L180.10-3.07Q182.46-3.07 184.42-4.80L184.42-4.80L184.42-4.80Q186.37-6.53 186.37-8.48L186.37-8.48L186.37-8.48Q186.37-10.43 185.12-11.84L185.12-11.84L185.12-11.84Q183.87-13.25 182.02-14.37L182.02-14.37L182.02-14.37Q180.16-15.49 178.02-16.58L178.02-16.58L178.02-16.58Q175.87-17.66 174.02-19.20L174.02-19.20L174.02-19.20Q169.66-22.72 169.66-28.35L169.66-28.35L169.66-28.35Q169.66-32 171.46-34.85L171.46-34.85L171.46-34.85Q173.25-37.70 176.13-39.62L176.13-39.62L176.13-39.62Q181.89-43.52 188.96-43.52L188.96-43.52L188.96-43.52Q196.03-43.52 199.46-41.41L199.46-41.41L199.46-41.41Q202.88-39.30 202.88-35.71L202.88-35.71L202.88-35.71Q202.88-32.58 200.45-30.59L200.45-30.59L200.45-30.59Q198.34-28.93 195.78-28.93L195.78-28.93L195.78-28.93Q193.22-28.93 191.42-29.57ZM205.25-6.40L205.25-6.40L205.25-6.40Q205.25-8.13 206.14-12.48L206.14-12.48L209.54-29.76L205.76-29.76L206.02-31.68L206.02-31.68Q213.70-33.98 221.12-39.62L221.12-39.62L224.19-39.62L222.66-32.64L227.65-32.64L227.07-29.76L222.14-29.76L218.88-12.48L218.88-12.48Q218.05-8.51 218.05-7.17L218.05-7.17L218.05-7.17Q218.05-4.10 220.74-3.46L220.74-3.46L220.74-3.46Q220.10-1.28 217.79 0L217.79 0L217.79 0Q215.49 1.28 212.22 1.28L212.22 1.28L212.22 1.28Q208.96 1.28 207.10-0.77L207.10-0.77L207.10-0.77Q205.25-2.82 205.25-6.40ZM252.99-10.82L252.99-10.82L252.99-10.82Q254.59-9.73 254.59-7.33L254.59-7.33L254.59-7.33Q254.59-4.93 253.38-3.39L253.38-3.39L253.38-3.39Q252.16-1.86 250.18-0.83L250.18-0.83L250.18-0.83Q246.08 1.28 241.66 1.28L241.66 1.28L241.66 1.28Q237.25 1.28 234.66 0.32L234.66 0.32L234.66 0.32Q232.06-0.64 230.34-2.43L230.34-2.43L230.34-2.43Q226.94-5.82 226.94-12.03L226.94-12.03L226.94-12.03Q226.94-21.70 232.19-27.58L232.19-27.58L232.19-27.58Q237.82-33.92 247.62-33.92L247.62-33.92L247.62-33.92Q253.70-33.92 256.70-31.36L256.70-31.36L256.70-31.36Q258.94-29.44 258.94-26.30L258.94-26.30L258.94-26.30Q258.94-15.04 239.49-15.04L239.49-15.04L239.49-15.04Q239.23-13.38 239.23-11.97L239.23-11.97L239.23-11.97Q239.23-9.02 240.54-7.90L240.54-7.90L240.54-7.90Q241.86-6.78 244.29-6.78L244.29-6.78L244.29-6.78Q246.72-6.78 249.31-7.90L249.31-7.90L249.31-7.90Q251.90-9.02 252.99-10.82ZM239.94-17.79L239.94-17.79L239.94-17.79Q244.48-17.79 247.10-20.61L247.10-20.61L247.10-20.61Q249.73-23.30 249.73-27.58L249.73-27.58L249.73-27.58Q249.73-29.06 249.18-29.86L249.18-29.86L249.18-29.86Q248.64-30.66 247.55-30.66L247.55-30.66L247.55-30.66Q246.46-30.66 245.54-30.24L245.54-30.24L245.54-30.24Q244.61-29.82 243.65-28.42L243.65-28.42L243.65-28.42Q241.28-25.22 239.94-17.79ZM284.35-31.55L284.35-31.55L284.35-31.55Q286.46-33.92 290.11-33.92L290.11-33.92L290.11-33.92Q292.35-33.92 294.08-32.70L294.08-32.70L294.08-32.70Q295.81-31.49 295.81-29.22L295.81-29.22L295.81-29.22Q295.81-26.94 295.10-24.51L295.10-24.51L295.10-24.51Q294.40-22.08 293.31-19.58L293.31-19.58L293.31-19.58Q291.14-14.72 288.13-10.69L288.13-10.69L288.13-10.69Q283.90-4.86 279.84-1.79L279.84-1.79L279.84-1.79Q275.78 1.28 271.36 1.28L271.36 1.28L271.36 1.28Q267.78 1.28 265.60 0.45L265.60 0.45L265.60 0.45Q265.22-12.99 264.74-17.79L264.74-17.79L264.74-17.79Q264.26-22.59 263.87-25.22L263.87-25.22L263.87-25.22Q263.23-30.34 261.31-31.55L261.31-31.55L261.31-31.55Q262.78-32.83 264.22-33.38L264.22-33.38L264.22-33.38Q265.66-33.92 268.64-33.92L268.64-33.92L268.64-33.92Q271.62-33.92 273.73-31.58L273.73-31.58L273.73-31.58Q275.84-29.25 276.26-25.12L276.26-25.12L276.26-25.12Q276.67-20.99 276.67-16L276.67-16L276.67-16Q276.67-11.01 276.29-4.99L276.29-4.99L276.29-4.99Q278.27-6.40 280.38-10.69L280.38-10.69L280.38-10.69Q283.26-16.64 284.29-23.81L284.29-23.81L284.29-23.81Q284.61-25.98 284.61-28.29L284.61-28.29L284.61-28.29Q284.61-30.59 284.35-31.55ZM323.46-10.82L323.46-10.82L323.46-10.82Q325.06-9.73 325.06-7.33L325.06-7.33L325.06-7.33Q325.06-4.93 323.84-3.39L323.84-3.39L323.84-3.39Q322.62-1.86 320.64-0.83L320.64-0.83L320.64-0.83Q316.54 1.28 312.13 1.28L312.13 1.28L312.13 1.28Q307.71 1.28 305.12 0.32L305.12 0.32L305.12 0.32Q302.53-0.64 300.80-2.43L300.80-2.43L300.80-2.43Q297.41-5.82 297.41-12.03L297.41-12.03L297.41-12.03Q297.41-21.70 302.66-27.58L302.66-27.58L302.66-27.58Q308.29-33.92 318.08-33.92L318.08-33.92L318.08-33.92Q324.16-33.92 327.17-31.36L327.17-31.36L327.17-31.36Q329.41-29.44 329.41-26.30L329.41-26.30L329.41-26.30Q329.41-15.04 309.95-15.04L309.95-15.04L309.95-15.04Q309.70-13.38 309.70-11.97L309.70-11.97L309.70-11.97Q309.70-9.02 311.01-7.90L311.01-7.90L311.01-7.90Q312.32-6.78 314.75-6.78L314.75-6.78L314.75-6.78Q317.18-6.78 319.78-7.90L319.78-7.90L319.78-7.90Q322.37-9.02 323.46-10.82ZM310.40-17.79L310.40-17.79L310.40-17.79Q314.94-17.79 317.57-20.61L317.57-20.61L317.57-20.61Q320.19-23.30 320.19-27.58L320.19-27.58L320.19-27.58Q320.19-29.06 319.65-29.86L319.65-29.86L319.65-29.86Q319.10-30.66 318.02-30.66L318.02-30.66L318.02-30.66Q316.93-30.66 316.00-30.24L316.00-30.24L316.00-30.24Q315.07-29.82 314.11-28.42L314.11-28.42L314.11-28.42Q311.74-25.22 310.40-17.79ZM358.66 1.28L358.66 1.28L358.66 1.28Q350.91 1.28 350.91-4.74L350.91-4.74L350.91-4.74Q350.98-6.40 351.49-9.22L351.49-9.22L352.64-15.10L352.64-15.10Q354.37-23.42 354.37-25.28L354.37-25.28L354.37-25.28Q354.37-28.99 352.19-28.99L352.19-28.99L352.19-28.99Q348.54-28.99 346.62-19.46L346.62-19.46L342.85 0L329.98 1.28L336.64-32.70L347.14-33.92L346.11-27.65L346.11-27.65Q349.12-33.92 358.34-33.92L358.34-33.92L358.34-33.92Q362.82-33.92 364.70-32.03L364.70-32.03L364.70-32.03Q366.59-30.14 366.59-25.92L366.59-25.92L366.59-25.92Q366.59-21.95 364.54-12.67L364.54-12.67L364.54-12.67Q363.58-8.51 363.58-6.94L363.58-6.94L363.58-6.94Q363.58-5.38 364.45-4.48L364.45-4.48L364.45-4.48Q365.31-3.58 366.59-3.46L366.59-3.46L366.59-3.46Q365.95-1.28 363.74 0L363.74 0L363.74 0Q361.54 1.28 358.66 1.28Z" fill="#ffd5af"></path></g></g><style>text {
  font-size: 64px;
  font-family: bonkusblack;
  dominant-baseline: central;
  text-anchor: middle;
}</style></svg>